<mxfile host="app.diagrams.net" agent="Mozilla/5.0 (Windows NT 10.0; Win64; x64) AppleWebKit/537.36 (KHTML, like Gecko) Chrome/134.0.0.0 Safari/537.36" version="26.1.0">
  <diagram name="Trang-1" id="PB8cYMlhyOLMqyZQ3nry">
    <mxGraphModel dx="2829" dy="838" grid="1" gridSize="10" guides="1" tooltips="1" connect="1" arrows="1" fold="1" page="1" pageScale="1" pageWidth="827" pageHeight="1169" math="0" shadow="0">
      <root>
        <mxCell id="0" />
        <mxCell id="1" parent="0" />
        <mxCell id="OnXmid0ZAogw-lazpNW6-2" value="" style="swimlane;startSize=0;" vertex="1" parent="1">
          <mxGeometry x="-20" y="120" width="710" height="1180" as="geometry" />
        </mxCell>
        <mxCell id="OnXmid0ZAogw-lazpNW6-4" value="&lt;b&gt;&lt;font style=&quot;font-size: 18px;&quot;&gt;Phần mềm tự động hóa Video&amp;nbsp;&lt;/font&gt;&lt;/b&gt;" style="text;html=1;align=center;verticalAlign=middle;whiteSpace=wrap;rounded=0;" vertex="1" parent="OnXmid0ZAogw-lazpNW6-2">
          <mxGeometry x="210" width="290" height="30" as="geometry" />
        </mxCell>
        <mxCell id="OnXmid0ZAogw-lazpNW6-5" value="Thêm dự án" style="ellipse;whiteSpace=wrap;html=1;" vertex="1" parent="OnXmid0ZAogw-lazpNW6-2">
          <mxGeometry x="30" y="140" width="100" height="50" as="geometry" />
        </mxCell>
        <mxCell id="OnXmid0ZAogw-lazpNW6-6" value="Tạo video mới" style="ellipse;whiteSpace=wrap;html=1;" vertex="1" parent="OnXmid0ZAogw-lazpNW6-2">
          <mxGeometry x="180" y="50" width="100" height="50" as="geometry" />
        </mxCell>
        <mxCell id="OnXmid0ZAogw-lazpNW6-7" value="Nhập chủ đề văn học" style="ellipse;whiteSpace=wrap;html=1;" vertex="1" parent="OnXmid0ZAogw-lazpNW6-2">
          <mxGeometry x="210" y="130" width="100" height="50" as="geometry" />
        </mxCell>
        <mxCell id="OnXmid0ZAogw-lazpNW6-8" value="Chỉnh sửa video" style="ellipse;whiteSpace=wrap;html=1;" vertex="1" parent="OnXmid0ZAogw-lazpNW6-2">
          <mxGeometry x="180" y="350" width="100" height="50" as="geometry" />
        </mxCell>
        <mxCell id="OnXmid0ZAogw-lazpNW6-9" value="Chỉnh sửa thủ công" style="ellipse;whiteSpace=wrap;html=1;" vertex="1" parent="OnXmid0ZAogw-lazpNW6-2">
          <mxGeometry x="305" y="290" width="100" height="50" as="geometry" />
        </mxCell>
        <mxCell id="OnXmid0ZAogw-lazpNW6-10" value="Chỉnh sửa tự động" style="ellipse;whiteSpace=wrap;html=1;" vertex="1" parent="OnXmid0ZAogw-lazpNW6-2">
          <mxGeometry x="310" y="420" width="100" height="50" as="geometry" />
        </mxCell>
        <mxCell id="OnXmid0ZAogw-lazpNW6-12" value="Cấu hình giọng nói" style="ellipse;whiteSpace=wrap;html=1;" vertex="1" parent="OnXmid0ZAogw-lazpNW6-2">
          <mxGeometry x="180" y="520" width="100" height="50" as="geometry" />
        </mxCell>
        <mxCell id="OnXmid0ZAogw-lazpNW6-13" value="Lựa chọn giọng" style="ellipse;whiteSpace=wrap;html=1;" vertex="1" parent="OnXmid0ZAogw-lazpNW6-2">
          <mxGeometry x="350" y="490" width="100" height="50" as="geometry" />
        </mxCell>
        <mxCell id="OnXmid0ZAogw-lazpNW6-14" value="Điều chỉnh tốc độ" style="ellipse;whiteSpace=wrap;html=1;" vertex="1" parent="OnXmid0ZAogw-lazpNW6-2">
          <mxGeometry x="330" y="590" width="100" height="50" as="geometry" />
        </mxCell>
        <mxCell id="OnXmid0ZAogw-lazpNW6-18" value="Tạo hình ảnh" style="ellipse;whiteSpace=wrap;html=1;" vertex="1" parent="OnXmid0ZAogw-lazpNW6-2">
          <mxGeometry x="180" y="210" width="100" height="50" as="geometry" />
        </mxCell>
        <mxCell id="OnXmid0ZAogw-lazpNW6-19" value="Thu thập dữ liệu" style="ellipse;whiteSpace=wrap;html=1;" vertex="1" parent="OnXmid0ZAogw-lazpNW6-2">
          <mxGeometry x="560" y="130" width="100" height="50" as="geometry" />
        </mxCell>
        <mxCell id="OnXmid0ZAogw-lazpNW6-21" value="Tạo kịch bản tự động" style="ellipse;whiteSpace=wrap;html=1;" vertex="1" parent="OnXmid0ZAogw-lazpNW6-2">
          <mxGeometry x="400" y="70" width="100" height="50" as="geometry" />
        </mxCell>
        <mxCell id="OnXmid0ZAogw-lazpNW6-22" value="Sinh giọng nói AI" style="ellipse;whiteSpace=wrap;html=1;" vertex="1" parent="OnXmid0ZAogw-lazpNW6-2">
          <mxGeometry x="520" y="540" width="100" height="50" as="geometry" />
        </mxCell>
        <mxCell id="OnXmid0ZAogw-lazpNW6-23" value="Sinh hình ảnh AI" style="ellipse;whiteSpace=wrap;html=1;" vertex="1" parent="OnXmid0ZAogw-lazpNW6-2">
          <mxGeometry x="360" y="190" width="100" height="50" as="geometry" />
        </mxCell>
        <mxCell id="OnXmid0ZAogw-lazpNW6-25" value="Sinh video" style="ellipse;whiteSpace=wrap;html=1;" vertex="1" parent="OnXmid0ZAogw-lazpNW6-2">
          <mxGeometry x="540" y="260" width="100" height="50" as="geometry" />
        </mxCell>
        <mxCell id="OnXmid0ZAogw-lazpNW6-44" value="Xuất bản video" style="ellipse;whiteSpace=wrap;html=1;" vertex="1" parent="OnXmid0ZAogw-lazpNW6-2">
          <mxGeometry x="180" y="740" width="100" height="50" as="geometry" />
        </mxCell>
        <mxCell id="OnXmid0ZAogw-lazpNW6-45" value="Xuất bản video lên Youtube" style="ellipse;whiteSpace=wrap;html=1;" vertex="1" parent="OnXmid0ZAogw-lazpNW6-2">
          <mxGeometry x="340" y="670" width="100" height="50" as="geometry" />
        </mxCell>
        <mxCell id="OnXmid0ZAogw-lazpNW6-46" value="Xuất bản video lên TikTok" style="ellipse;whiteSpace=wrap;html=1;" vertex="1" parent="OnXmid0ZAogw-lazpNW6-2">
          <mxGeometry x="350" y="750" width="100" height="50" as="geometry" />
        </mxCell>
        <mxCell id="OnXmid0ZAogw-lazpNW6-47" value="Xuất bản video lên Facebook" style="ellipse;whiteSpace=wrap;html=1;" vertex="1" parent="OnXmid0ZAogw-lazpNW6-2">
          <mxGeometry x="350" y="820" width="100" height="50" as="geometry" />
        </mxCell>
        <mxCell id="OnXmid0ZAogw-lazpNW6-69" value="Quản lý video" style="ellipse;whiteSpace=wrap;html=1;" vertex="1" parent="OnXmid0ZAogw-lazpNW6-2">
          <mxGeometry x="80" y="1009" width="100" height="50" as="geometry" />
        </mxCell>
        <mxCell id="OnXmid0ZAogw-lazpNW6-70" value="Tìm kiếm video" style="ellipse;whiteSpace=wrap;html=1;" vertex="1" parent="OnXmid0ZAogw-lazpNW6-2">
          <mxGeometry x="384" y="940" width="100" height="50" as="geometry" />
        </mxCell>
        <mxCell id="OnXmid0ZAogw-lazpNW6-71" value="Phân tích video" style="ellipse;whiteSpace=wrap;html=1;" vertex="1" parent="OnXmid0ZAogw-lazpNW6-2">
          <mxGeometry x="400" y="1049" width="100" height="50" as="geometry" />
        </mxCell>
        <mxCell id="OnXmid0ZAogw-lazpNW6-96" value="Xem danh sách video đã tạo" style="ellipse;whiteSpace=wrap;html=1;" vertex="1" parent="OnXmid0ZAogw-lazpNW6-2">
          <mxGeometry x="410" y="1120" width="100" height="50" as="geometry" />
        </mxCell>
        <mxCell id="OnXmid0ZAogw-lazpNW6-98" value="Chỉnh sửa metadata video" style="ellipse;whiteSpace=wrap;html=1;" vertex="1" parent="OnXmid0ZAogw-lazpNW6-2">
          <mxGeometry x="30" y="660" width="100" height="50" as="geometry" />
        </mxCell>
        <mxCell id="OnXmid0ZAogw-lazpNW6-117" value="&amp;lt;&amp;lt;Include&amp;gt;&amp;gt;" style="endArrow=open;endSize=12;dashed=1;html=1;rounded=0;exitX=0.734;exitY=0.063;exitDx=0;exitDy=0;exitPerimeter=0;entryX=0.022;entryY=0.694;entryDx=0;entryDy=0;entryPerimeter=0;" edge="1" parent="OnXmid0ZAogw-lazpNW6-2" source="OnXmid0ZAogw-lazpNW6-5" target="OnXmid0ZAogw-lazpNW6-6">
          <mxGeometry width="160" relative="1" as="geometry">
            <mxPoint x="240" y="240" as="sourcePoint" />
            <mxPoint x="400" y="240" as="targetPoint" />
          </mxGeometry>
        </mxCell>
        <mxCell id="OnXmid0ZAogw-lazpNW6-118" value="&lt;font style=&quot;font-size: 9px;&quot;&gt;&amp;lt;&amp;lt;Include&amp;gt;&amp;gt;&lt;/font&gt;" style="endArrow=open;endSize=12;dashed=1;html=1;rounded=0;exitX=1.003;exitY=0.36;exitDx=0;exitDy=0;exitPerimeter=0;" edge="1" parent="OnXmid0ZAogw-lazpNW6-2" source="OnXmid0ZAogw-lazpNW6-5" target="OnXmid0ZAogw-lazpNW6-7">
          <mxGeometry width="160" relative="1" as="geometry">
            <mxPoint x="113" y="153" as="sourcePoint" />
            <mxPoint x="192" y="95" as="targetPoint" />
          </mxGeometry>
        </mxCell>
        <mxCell id="OnXmid0ZAogw-lazpNW6-147" value="&lt;font style=&quot;font-size: 9px;&quot;&gt;&amp;lt;&amp;lt;Include&amp;gt;&amp;gt;&lt;/font&gt;" style="endArrow=open;endSize=12;dashed=1;html=1;rounded=0;exitX=0.79;exitY=0.972;exitDx=0;exitDy=0;exitPerimeter=0;entryX=0.044;entryY=0.282;entryDx=0;entryDy=0;entryPerimeter=0;" edge="1" parent="OnXmid0ZAogw-lazpNW6-2" source="OnXmid0ZAogw-lazpNW6-5" target="OnXmid0ZAogw-lazpNW6-18">
          <mxGeometry width="160" relative="1" as="geometry">
            <mxPoint x="140" y="168" as="sourcePoint" />
            <mxPoint x="220" y="166" as="targetPoint" />
          </mxGeometry>
        </mxCell>
        <mxCell id="OnXmid0ZAogw-lazpNW6-148" value="&lt;font style=&quot;font-size: 9px;&quot;&gt;&amp;lt;&amp;lt;Include&amp;gt;&amp;gt;&lt;/font&gt;" style="endArrow=open;endSize=12;dashed=1;html=1;rounded=0;exitX=0.576;exitY=1.03;exitDx=0;exitDy=0;exitPerimeter=0;" edge="1" parent="OnXmid0ZAogw-lazpNW6-2" source="OnXmid0ZAogw-lazpNW6-5" target="OnXmid0ZAogw-lazpNW6-8">
          <mxGeometry width="160" relative="1" as="geometry">
            <mxPoint x="150" y="178" as="sourcePoint" />
            <mxPoint x="230" y="176" as="targetPoint" />
          </mxGeometry>
        </mxCell>
        <mxCell id="OnXmid0ZAogw-lazpNW6-149" value="" style="endArrow=block;endSize=16;endFill=0;html=1;rounded=0;" edge="1" parent="OnXmid0ZAogw-lazpNW6-2" source="OnXmid0ZAogw-lazpNW6-9" target="OnXmid0ZAogw-lazpNW6-8">
          <mxGeometry width="160" relative="1" as="geometry">
            <mxPoint x="180" y="420" as="sourcePoint" />
            <mxPoint x="380" y="410" as="targetPoint" />
          </mxGeometry>
        </mxCell>
        <mxCell id="OnXmid0ZAogw-lazpNW6-150" value="" style="endArrow=block;endSize=16;endFill=0;html=1;rounded=0;exitX=0.224;exitY=0.113;exitDx=0;exitDy=0;exitPerimeter=0;entryX=0.76;entryY=0.88;entryDx=0;entryDy=0;entryPerimeter=0;" edge="1" parent="OnXmid0ZAogw-lazpNW6-2" source="OnXmid0ZAogw-lazpNW6-10" target="OnXmid0ZAogw-lazpNW6-8">
          <mxGeometry width="160" relative="1" as="geometry">
            <mxPoint x="161" y="435" as="sourcePoint" />
            <mxPoint x="209" y="405" as="targetPoint" />
          </mxGeometry>
        </mxCell>
        <mxCell id="OnXmid0ZAogw-lazpNW6-151" value="&lt;font style=&quot;font-size: 9px;&quot;&gt;&amp;lt;&amp;lt;Include&amp;gt;&amp;gt;&lt;/font&gt;" style="endArrow=open;endSize=12;dashed=1;html=1;rounded=0;exitX=0.365;exitY=1.012;exitDx=0;exitDy=0;exitPerimeter=0;entryX=0.298;entryY=0.117;entryDx=0;entryDy=0;entryPerimeter=0;" edge="1" parent="OnXmid0ZAogw-lazpNW6-2" source="OnXmid0ZAogw-lazpNW6-5" target="OnXmid0ZAogw-lazpNW6-12">
          <mxGeometry width="160" relative="1" as="geometry">
            <mxPoint x="98" y="202" as="sourcePoint" />
            <mxPoint x="222" y="362" as="targetPoint" />
          </mxGeometry>
        </mxCell>
        <mxCell id="OnXmid0ZAogw-lazpNW6-152" value="&lt;font style=&quot;font-size: 9px;&quot;&gt;&amp;lt;&amp;lt;Include&amp;gt;&amp;gt;&lt;/font&gt;" style="endArrow=open;endSize=12;dashed=1;html=1;rounded=0;exitX=0.246;exitY=0.902;exitDx=0;exitDy=0;exitPerimeter=0;" edge="1" parent="OnXmid0ZAogw-lazpNW6-2" source="OnXmid0ZAogw-lazpNW6-5" target="OnXmid0ZAogw-lazpNW6-44">
          <mxGeometry width="160" relative="1" as="geometry">
            <mxPoint x="77" y="201" as="sourcePoint" />
            <mxPoint x="220" y="536" as="targetPoint" />
          </mxGeometry>
        </mxCell>
        <mxCell id="OnXmid0ZAogw-lazpNW6-153" value="&lt;font style=&quot;font-size: 9px;&quot;&gt;&amp;lt;&amp;lt;Include&amp;gt;&amp;gt;&lt;/font&gt;" style="endArrow=open;endSize=12;dashed=1;html=1;rounded=0;entryX=1;entryY=0.5;entryDx=0;entryDy=0;" edge="1" parent="OnXmid0ZAogw-lazpNW6-2" source="OnXmid0ZAogw-lazpNW6-44" target="OnXmid0ZAogw-lazpNW6-98">
          <mxGeometry width="160" relative="1" as="geometry">
            <mxPoint x="70" y="662" as="sourcePoint" />
            <mxPoint x="150" y="660" as="targetPoint" />
          </mxGeometry>
        </mxCell>
        <mxCell id="OnXmid0ZAogw-lazpNW6-154" value="" style="endArrow=block;endSize=16;endFill=0;html=1;rounded=0;exitX=0;exitY=0.5;exitDx=0;exitDy=0;" edge="1" parent="OnXmid0ZAogw-lazpNW6-2" source="OnXmid0ZAogw-lazpNW6-45" target="OnXmid0ZAogw-lazpNW6-44">
          <mxGeometry width="160" relative="1" as="geometry">
            <mxPoint x="300" y="694" as="sourcePoint" />
            <mxPoint x="247" y="720" as="targetPoint" />
          </mxGeometry>
        </mxCell>
        <mxCell id="OnXmid0ZAogw-lazpNW6-155" value="" style="endArrow=block;endSize=16;endFill=0;html=1;rounded=0;exitX=0;exitY=0.5;exitDx=0;exitDy=0;entryX=1;entryY=0.5;entryDx=0;entryDy=0;" edge="1" parent="OnXmid0ZAogw-lazpNW6-2" source="OnXmid0ZAogw-lazpNW6-46" target="OnXmid0ZAogw-lazpNW6-44">
          <mxGeometry width="160" relative="1" as="geometry">
            <mxPoint x="339" y="352" as="sourcePoint" />
            <mxPoint x="286" y="378" as="targetPoint" />
          </mxGeometry>
        </mxCell>
        <mxCell id="OnXmid0ZAogw-lazpNW6-156" value="" style="endArrow=block;endSize=16;endFill=0;html=1;rounded=0;exitX=0;exitY=0.5;exitDx=0;exitDy=0;" edge="1" parent="OnXmid0ZAogw-lazpNW6-2" source="OnXmid0ZAogw-lazpNW6-47" target="OnXmid0ZAogw-lazpNW6-44">
          <mxGeometry width="160" relative="1" as="geometry">
            <mxPoint x="349" y="362" as="sourcePoint" />
            <mxPoint x="296" y="388" as="targetPoint" />
          </mxGeometry>
        </mxCell>
        <mxCell id="OnXmid0ZAogw-lazpNW6-157" value="&lt;font style=&quot;font-size: 9px;&quot;&gt;&amp;lt;&amp;lt;Include&amp;gt;&amp;gt;&lt;/font&gt;" style="endArrow=open;endSize=12;dashed=1;html=1;rounded=0;exitX=0.813;exitY=0.099;exitDx=0;exitDy=0;exitPerimeter=0;" edge="1" parent="OnXmid0ZAogw-lazpNW6-2" source="OnXmid0ZAogw-lazpNW6-12" target="OnXmid0ZAogw-lazpNW6-13">
          <mxGeometry width="160" relative="1" as="geometry">
            <mxPoint x="119" y="199" as="sourcePoint" />
            <mxPoint x="194" y="234" as="targetPoint" />
          </mxGeometry>
        </mxCell>
        <mxCell id="OnXmid0ZAogw-lazpNW6-159" value="&lt;font style=&quot;font-size: 9px;&quot;&gt;&amp;lt;&amp;lt;Include&amp;gt;&amp;gt;&lt;/font&gt;" style="endArrow=open;endSize=12;dashed=1;html=1;rounded=0;exitX=1;exitY=1;exitDx=0;exitDy=0;entryX=0.047;entryY=0.332;entryDx=0;entryDy=0;entryPerimeter=0;" edge="1" parent="OnXmid0ZAogw-lazpNW6-2" source="OnXmid0ZAogw-lazpNW6-12" target="OnXmid0ZAogw-lazpNW6-14">
          <mxGeometry width="160" relative="1" as="geometry">
            <mxPoint x="271" y="535" as="sourcePoint" />
            <mxPoint x="360" y="528" as="targetPoint" />
          </mxGeometry>
        </mxCell>
        <mxCell id="OnXmid0ZAogw-lazpNW6-160" value="&lt;font style=&quot;font-size: 9px;&quot;&gt;&amp;lt;&amp;lt;Include&amp;gt;&amp;gt;&lt;/font&gt;" style="endArrow=open;endSize=12;dashed=1;html=1;rounded=0;exitX=0.977;exitY=0.678;exitDx=0;exitDy=0;exitPerimeter=0;entryX=0.056;entryY=0.269;entryDx=0;entryDy=0;entryPerimeter=0;" edge="1" parent="OnXmid0ZAogw-lazpNW6-2" source="OnXmid0ZAogw-lazpNW6-13" target="OnXmid0ZAogw-lazpNW6-22">
          <mxGeometry width="160" relative="1" as="geometry">
            <mxPoint x="271" y="535" as="sourcePoint" />
            <mxPoint x="360" y="528" as="targetPoint" />
          </mxGeometry>
        </mxCell>
        <mxCell id="OnXmid0ZAogw-lazpNW6-206" value="&lt;font style=&quot;font-size: 9px;&quot;&gt;&amp;lt;&amp;lt;Include&amp;gt;&amp;gt;&lt;/font&gt;" style="endArrow=open;endSize=12;dashed=1;html=1;rounded=0;exitX=1;exitY=1;exitDx=0;exitDy=0;" edge="1" parent="OnXmid0ZAogw-lazpNW6-2" source="OnXmid0ZAogw-lazpNW6-21" target="OnXmid0ZAogw-lazpNW6-19">
          <mxGeometry width="160" relative="1" as="geometry">
            <mxPoint x="417" y="137" as="sourcePoint" />
            <mxPoint x="320" y="165" as="targetPoint" />
          </mxGeometry>
        </mxCell>
        <mxCell id="OnXmid0ZAogw-lazpNW6-207" value="&lt;font style=&quot;font-size: 9px;&quot;&gt;&amp;lt;&amp;lt;Include&amp;gt;&amp;gt;&lt;/font&gt;" style="endArrow=open;endSize=12;dashed=1;html=1;rounded=0;exitX=1;exitY=0;exitDx=0;exitDy=0;entryX=0;entryY=1;entryDx=0;entryDy=0;" edge="1" parent="OnXmid0ZAogw-lazpNW6-2" source="OnXmid0ZAogw-lazpNW6-69" target="OnXmid0ZAogw-lazpNW6-70">
          <mxGeometry width="160" relative="1" as="geometry">
            <mxPoint x="90" y="870" as="sourcePoint" />
            <mxPoint x="214" y="1030" as="targetPoint" />
          </mxGeometry>
        </mxCell>
        <mxCell id="OnXmid0ZAogw-lazpNW6-209" value="&lt;font style=&quot;font-size: 9px;&quot;&gt;&amp;lt;&amp;lt;Include&amp;gt;&amp;gt;&lt;/font&gt;" style="endArrow=open;endSize=12;dashed=1;html=1;rounded=0;exitX=1;exitY=0.5;exitDx=0;exitDy=0;entryX=0.083;entryY=0.217;entryDx=0;entryDy=0;entryPerimeter=0;" edge="1" parent="OnXmid0ZAogw-lazpNW6-2" source="OnXmid0ZAogw-lazpNW6-69" target="OnXmid0ZAogw-lazpNW6-71">
          <mxGeometry width="160" relative="1" as="geometry">
            <mxPoint x="175" y="1026" as="sourcePoint" />
            <mxPoint x="245" y="993" as="targetPoint" />
          </mxGeometry>
        </mxCell>
        <mxCell id="OnXmid0ZAogw-lazpNW6-210" value="&lt;font style=&quot;font-size: 9px;&quot;&gt;&amp;lt;&amp;lt;Include&amp;gt;&amp;gt;&lt;/font&gt;" style="endArrow=open;endSize=12;dashed=1;html=1;rounded=0;exitX=0.737;exitY=0.965;exitDx=0;exitDy=0;exitPerimeter=0;" edge="1" parent="OnXmid0ZAogw-lazpNW6-2" source="OnXmid0ZAogw-lazpNW6-69" target="OnXmid0ZAogw-lazpNW6-96">
          <mxGeometry width="160" relative="1" as="geometry">
            <mxPoint x="185" y="1036" as="sourcePoint" />
            <mxPoint x="255" y="1003" as="targetPoint" />
          </mxGeometry>
        </mxCell>
        <mxCell id="OnXmid0ZAogw-lazpNW6-220" value="Tùy chọn độ phân giải" style="ellipse;whiteSpace=wrap;html=1;" vertex="1" parent="OnXmid0ZAogw-lazpNW6-2">
          <mxGeometry x="15" y="810" width="130" height="60" as="geometry" />
        </mxCell>
        <mxCell id="OnXmid0ZAogw-lazpNW6-221" value="Tự động đăng tải" style="ellipse;whiteSpace=wrap;html=1;" vertex="1" parent="OnXmid0ZAogw-lazpNW6-2">
          <mxGeometry x="150" y="890" width="100" height="50" as="geometry" />
        </mxCell>
        <mxCell id="OnXmid0ZAogw-lazpNW6-270" value="&lt;font style=&quot;font-size: 9px;&quot;&gt;&amp;lt;&amp;lt;Extend&amp;gt;&amp;gt;&lt;/font&gt;" style="endArrow=open;endSize=12;dashed=1;html=1;rounded=0;entryX=0;entryY=1;entryDx=0;entryDy=0;exitX=0.97;exitY=0.328;exitDx=0;exitDy=0;exitPerimeter=0;" edge="1" parent="OnXmid0ZAogw-lazpNW6-2" source="OnXmid0ZAogw-lazpNW6-220" target="OnXmid0ZAogw-lazpNW6-44">
          <mxGeometry width="160" relative="1" as="geometry">
            <mxPoint x="214" y="754" as="sourcePoint" />
            <mxPoint x="140" y="695" as="targetPoint" />
          </mxGeometry>
        </mxCell>
        <mxCell id="OnXmid0ZAogw-lazpNW6-271" value="&lt;font style=&quot;font-size: 9px;&quot;&gt;&amp;lt;&amp;lt;Extend&amp;gt;&amp;gt;&lt;/font&gt;" style="endArrow=open;endSize=12;dashed=1;html=1;rounded=0;entryX=0.4;entryY=0.919;entryDx=0;entryDy=0;exitX=0.5;exitY=0;exitDx=0;exitDy=0;entryPerimeter=0;" edge="1" parent="OnXmid0ZAogw-lazpNW6-2" source="OnXmid0ZAogw-lazpNW6-221" target="OnXmid0ZAogw-lazpNW6-44">
          <mxGeometry width="160" relative="1" as="geometry">
            <mxPoint x="224" y="764" as="sourcePoint" />
            <mxPoint x="150" y="705" as="targetPoint" />
          </mxGeometry>
        </mxCell>
        <mxCell id="OnXmid0ZAogw-lazpNW6-273" value="&lt;font style=&quot;font-size: 9px;&quot;&gt;&amp;lt;&amp;lt;Include&amp;gt;&amp;gt;&lt;/font&gt;" style="endArrow=open;endSize=12;dashed=1;html=1;rounded=0;exitX=0.066;exitY=0.296;exitDx=0;exitDy=0;exitPerimeter=0;" edge="1" parent="OnXmid0ZAogw-lazpNW6-2" source="OnXmid0ZAogw-lazpNW6-25" target="OnXmid0ZAogw-lazpNW6-23">
          <mxGeometry width="160" relative="1" as="geometry">
            <mxPoint x="150" y="178" as="sourcePoint" />
            <mxPoint x="230" y="176" as="targetPoint" />
          </mxGeometry>
        </mxCell>
        <mxCell id="OnXmid0ZAogw-lazpNW6-274" value="&lt;font style=&quot;font-size: 9px;&quot;&gt;&amp;lt;&amp;lt;Include&amp;gt;&amp;gt;&lt;/font&gt;" style="endArrow=open;endSize=12;dashed=1;html=1;rounded=0;exitX=0;exitY=0.5;exitDx=0;exitDy=0;entryX=1;entryY=0.5;entryDx=0;entryDy=0;" edge="1" parent="OnXmid0ZAogw-lazpNW6-2" source="OnXmid0ZAogw-lazpNW6-19" target="OnXmid0ZAogw-lazpNW6-7">
          <mxGeometry width="160" relative="1" as="geometry">
            <mxPoint x="140" y="168" as="sourcePoint" />
            <mxPoint x="220" y="166" as="targetPoint" />
          </mxGeometry>
        </mxCell>
        <mxCell id="OnXmid0ZAogw-lazpNW6-275" value="&lt;font style=&quot;font-size: 9px;&quot;&gt;&amp;lt;&amp;lt;Include&amp;gt;&amp;gt;&lt;/font&gt;" style="endArrow=open;endSize=12;dashed=1;html=1;rounded=0;exitX=0;exitY=0.5;exitDx=0;exitDy=0;entryX=1;entryY=0.5;entryDx=0;entryDy=0;" edge="1" parent="OnXmid0ZAogw-lazpNW6-2" source="OnXmid0ZAogw-lazpNW6-23" target="OnXmid0ZAogw-lazpNW6-18">
          <mxGeometry width="160" relative="1" as="geometry">
            <mxPoint x="570" y="165" as="sourcePoint" />
            <mxPoint x="320" y="165" as="targetPoint" />
          </mxGeometry>
        </mxCell>
        <mxCell id="OnXmid0ZAogw-lazpNW6-3" value="User" style="shape=umlActor;verticalLabelPosition=bottom;verticalAlign=top;html=1;outlineConnect=0;" vertex="1" parent="1">
          <mxGeometry x="-170" y="690" width="30" height="60" as="geometry" />
        </mxCell>
        <mxCell id="OnXmid0ZAogw-lazpNW6-99" value="Wikipedia / thư viện quốc gia" style="shape=umlActor;verticalLabelPosition=bottom;verticalAlign=top;html=1;outlineConnect=0;" vertex="1" parent="1">
          <mxGeometry x="770" y="230" width="20" height="40" as="geometry" />
        </mxCell>
        <mxCell id="OnXmid0ZAogw-lazpNW6-100" value="OpenAI" style="shape=umlActor;verticalLabelPosition=bottom;verticalAlign=top;html=1;outlineConnect=0;" vertex="1" parent="1">
          <mxGeometry x="750" y="150" width="23" height="40" as="geometry" />
        </mxCell>
        <mxCell id="OnXmid0ZAogw-lazpNW6-103" value="Google TTS" style="shape=umlActor;verticalLabelPosition=bottom;verticalAlign=top;html=1;outlineConnect=0;" vertex="1" parent="1">
          <mxGeometry x="753" y="740" width="20" height="40" as="geometry" />
        </mxCell>
        <mxCell id="OnXmid0ZAogw-lazpNW6-104" value="DALL-E / Stable diffusion&amp;nbsp;" style="shape=umlActor;verticalLabelPosition=bottom;verticalAlign=top;html=1;outlineConnect=0;" vertex="1" parent="1">
          <mxGeometry x="750" y="335" width="20" height="40" as="geometry" />
        </mxCell>
        <mxCell id="OnXmid0ZAogw-lazpNW6-107" value="" style="endArrow=none;html=1;rounded=0;exitX=1;exitY=0.5;exitDx=0;exitDy=0;" edge="1" parent="1" source="OnXmid0ZAogw-lazpNW6-23" target="OnXmid0ZAogw-lazpNW6-104">
          <mxGeometry width="50" height="50" relative="1" as="geometry">
            <mxPoint x="730" y="360" as="sourcePoint" />
            <mxPoint x="780" y="310" as="targetPoint" />
          </mxGeometry>
        </mxCell>
        <mxCell id="OnXmid0ZAogw-lazpNW6-108" value="" style="endArrow=none;html=1;rounded=0;exitX=1;exitY=0.5;exitDx=0;exitDy=0;" edge="1" parent="1" source="OnXmid0ZAogw-lazpNW6-19" target="OnXmid0ZAogw-lazpNW6-99">
          <mxGeometry width="50" height="50" relative="1" as="geometry">
            <mxPoint x="700" y="330" as="sourcePoint" />
            <mxPoint x="750" y="280" as="targetPoint" />
          </mxGeometry>
        </mxCell>
        <mxCell id="OnXmid0ZAogw-lazpNW6-109" value="" style="endArrow=none;html=1;rounded=0;exitX=1;exitY=0;exitDx=0;exitDy=0;" edge="1" parent="1" source="OnXmid0ZAogw-lazpNW6-21" target="OnXmid0ZAogw-lazpNW6-100">
          <mxGeometry width="50" height="50" relative="1" as="geometry">
            <mxPoint x="700" y="330" as="sourcePoint" />
            <mxPoint x="750" y="280" as="targetPoint" />
          </mxGeometry>
        </mxCell>
        <mxCell id="OnXmid0ZAogw-lazpNW6-110" value="RunwayML / Pika Labs / Make-A-Video" style="shape=umlActor;verticalLabelPosition=bottom;verticalAlign=top;html=1;outlineConnect=0;" vertex="1" parent="1">
          <mxGeometry x="740" y="450" width="20" height="40" as="geometry" />
        </mxCell>
        <mxCell id="OnXmid0ZAogw-lazpNW6-111" value="" style="endArrow=none;html=1;rounded=0;exitX=0.761;exitY=0.912;exitDx=0;exitDy=0;exitPerimeter=0;" edge="1" parent="1" source="OnXmid0ZAogw-lazpNW6-25" target="OnXmid0ZAogw-lazpNW6-110">
          <mxGeometry width="50" height="50" relative="1" as="geometry">
            <mxPoint x="710" y="330" as="sourcePoint" />
            <mxPoint x="760" y="280" as="targetPoint" />
          </mxGeometry>
        </mxCell>
        <mxCell id="OnXmid0ZAogw-lazpNW6-112" value="" style="endArrow=none;html=1;rounded=0;exitX=0.753;exitY=0.925;exitDx=0;exitDy=0;exitPerimeter=0;" edge="1" parent="1" source="OnXmid0ZAogw-lazpNW6-22" target="OnXmid0ZAogw-lazpNW6-103">
          <mxGeometry width="50" height="50" relative="1" as="geometry">
            <mxPoint x="610" y="620" as="sourcePoint" />
            <mxPoint x="660" y="570" as="targetPoint" />
          </mxGeometry>
        </mxCell>
        <mxCell id="OnXmid0ZAogw-lazpNW6-113" value="Adobe Preview / Davinci Resolve / FFmpeg" style="shape=umlActor;verticalLabelPosition=bottom;verticalAlign=top;html=1;outlineConnect=0;" vertex="1" parent="1">
          <mxGeometry x="750" y="580" width="20" height="35" as="geometry" />
        </mxCell>
        <mxCell id="OnXmid0ZAogw-lazpNW6-114" value="" style="endArrow=none;html=1;rounded=0;exitX=1;exitY=0.5;exitDx=0;exitDy=0;" edge="1" parent="1" source="OnXmid0ZAogw-lazpNW6-8" target="OnXmid0ZAogw-lazpNW6-113">
          <mxGeometry width="50" height="50" relative="1" as="geometry">
            <mxPoint x="550" y="380" as="sourcePoint" />
            <mxPoint x="600" y="330" as="targetPoint" />
          </mxGeometry>
        </mxCell>
        <mxCell id="OnXmid0ZAogw-lazpNW6-115" value="" style="endArrow=none;html=1;rounded=0;entryX=0.031;entryY=0.738;entryDx=0;entryDy=0;entryPerimeter=0;" edge="1" parent="1" source="OnXmid0ZAogw-lazpNW6-3" target="OnXmid0ZAogw-lazpNW6-5">
          <mxGeometry width="50" height="50" relative="1" as="geometry">
            <mxPoint x="40" y="400" as="sourcePoint" />
            <mxPoint x="90" y="350" as="targetPoint" />
          </mxGeometry>
        </mxCell>
        <mxCell id="OnXmid0ZAogw-lazpNW6-116" value="" style="endArrow=none;html=1;rounded=0;exitX=0;exitY=0.5;exitDx=0;exitDy=0;" edge="1" parent="1" source="OnXmid0ZAogw-lazpNW6-69" target="OnXmid0ZAogw-lazpNW6-3">
          <mxGeometry width="50" height="50" relative="1" as="geometry">
            <mxPoint x="40" y="720" as="sourcePoint" />
            <mxPoint x="90" y="670" as="targetPoint" />
          </mxGeometry>
        </mxCell>
        <mxCell id="OnXmid0ZAogw-lazpNW6-212" value="Youtube" style="shape=umlActor;verticalLabelPosition=bottom;verticalAlign=top;html=1;outlineConnect=0;" vertex="1" parent="1">
          <mxGeometry x="730" y="850" width="20" height="40" as="geometry" />
        </mxCell>
        <mxCell id="OnXmid0ZAogw-lazpNW6-213" value="TikTok" style="shape=umlActor;verticalLabelPosition=bottom;verticalAlign=top;html=1;outlineConnect=0;" vertex="1" parent="1">
          <mxGeometry x="730" y="940" width="20" height="40" as="geometry" />
        </mxCell>
        <mxCell id="OnXmid0ZAogw-lazpNW6-214" value="Facebook" style="shape=umlActor;verticalLabelPosition=bottom;verticalAlign=top;html=1;outlineConnect=0;" vertex="1" parent="1">
          <mxGeometry x="730" y="1030" width="20" height="40" as="geometry" />
        </mxCell>
        <mxCell id="OnXmid0ZAogw-lazpNW6-217" value="" style="endArrow=none;html=1;rounded=0;exitX=1;exitY=0.5;exitDx=0;exitDy=0;" edge="1" parent="1" source="OnXmid0ZAogw-lazpNW6-45" target="OnXmid0ZAogw-lazpNW6-212">
          <mxGeometry width="50" height="50" relative="1" as="geometry">
            <mxPoint x="510" y="830" as="sourcePoint" />
            <mxPoint x="688" y="881" as="targetPoint" />
          </mxGeometry>
        </mxCell>
        <mxCell id="OnXmid0ZAogw-lazpNW6-218" value="" style="endArrow=none;html=1;rounded=0;exitX=1;exitY=0.5;exitDx=0;exitDy=0;" edge="1" parent="1" source="OnXmid0ZAogw-lazpNW6-46" target="OnXmid0ZAogw-lazpNW6-213">
          <mxGeometry width="50" height="50" relative="1" as="geometry">
            <mxPoint x="595" y="726" as="sourcePoint" />
            <mxPoint x="773" y="777" as="targetPoint" />
          </mxGeometry>
        </mxCell>
        <mxCell id="OnXmid0ZAogw-lazpNW6-219" value="" style="endArrow=none;html=1;rounded=0;exitX=1;exitY=0.5;exitDx=0;exitDy=0;" edge="1" parent="1" source="OnXmid0ZAogw-lazpNW6-47" target="OnXmid0ZAogw-lazpNW6-214">
          <mxGeometry width="50" height="50" relative="1" as="geometry">
            <mxPoint x="605" y="736" as="sourcePoint" />
            <mxPoint x="783" y="787" as="targetPoint" />
          </mxGeometry>
        </mxCell>
      </root>
    </mxGraphModel>
  </diagram>
</mxfile>
